<?xml version="1.0" encoding="UTF-8" standalone="no"?>
<!-- Created with Inkscape (http://www.inkscape.org/) -->

<svg
   version="1.1"
   id="svg2"
   width="100"
   height="119.99999"
   viewBox="0 0 99.999997 119.99999"
   sodipodi:docname="logo_blk.svg"
   inkscape:version="1.2.2 (b0a8486541, 2022-12-01)"
   xmlns:inkscape="http://www.inkscape.org/namespaces/inkscape"
   xmlns:sodipodi="http://sodipodi.sourceforge.net/DTD/sodipodi-0.dtd"
   xmlns="http://www.w3.org/2000/svg"
   xmlns:svg="http://www.w3.org/2000/svg">
  <defs
     id="defs6" />
  <sodipodi:namedview
     id="namedview4"
     pagecolor="#ffffff"
     bordercolor="#000000"
     borderopacity="0.25"
     inkscape:showpageshadow="2"
     inkscape:pageopacity="0.0"
     inkscape:pagecheckerboard="0"
     inkscape:deskcolor="#d1d1d1"
     showgrid="false"
     inkscape:zoom="1"
     inkscape:cx="107"
     inkscape:cy="159.5"
     inkscape:window-width="1920"
     inkscape:window-height="1017"
     inkscape:window-x="0"
     inkscape:window-y="0"
     inkscape:window-maximized="1"
     inkscape:current-layer="g8" />
  <g
     inkscape:groupmode="layer"
     inkscape:label="Image"
     id="g8"
     transform="translate(-119.31881,-34.022979)">
    <path
       style="fill:#020202;stroke-width:0.416471"
       d="m 166.69188,153.64053 c -5.44829,-0.77028 -10.7782,-4.34774 -13.29335,-8.92251 -1.71365,-3.117 -2.33095,-5.84487 -3.65838,-16.16713 -1.71344,-13.32409 -3.73515,-18.57171 -8.11695,-21.06869 -1.896,-1.08044 -2.35023,-1.1601 -6.61455,-1.1601 h -4.57878 l 2.67537,-2.36377 c 9.24273,-8.166207 14.01828,-9.732016 20.45237,-6.705945 8.24143,3.876065 10.38031,8.904405 10.36838,24.374975 -0.004,4.35826 -0.10659,8.08172 -0.22942,8.27435 -0.1228,0.19265 -0.23218,2.99304 -0.24305,6.2231 -0.0283,8.33883 1.14826,11.62608 5.88037,16.43201 1.69305,1.71947 1.73455,1.70247 -2.64201,1.08371 z m 19.68346,-1.81172 c -6.95643,-2.06589 -8.83606,-12.16609 -3.30524,-17.76081 1.10715,-1.11991 3.98687,-2.93703 4.65458,-2.93703 0.0896,0 -0.37869,1.04091 -1.04061,2.31314 -1.47539,2.83566 -1.64826,6.74473 -0.41469,9.3772 1.33763,2.85449 5.33913,5.63684 8.90086,6.18899 0.95191,0.14757 1.73074,0.40481 1.73074,0.57163 0,0.29119 -5.42271,2.12867 -7.61361,2.57987 -0.58159,0.11977 -1.89202,-0.0301 -2.91203,-0.33299 z m -15.34966,-6.86028 c -3.11816,-1.847 -4.41814,-4.79937 -3.65026,-8.28983 0.81977,-3.72624 3.61853,-5.16592 9.90614,-5.09569 2.53419,0.0283 3.34453,0.13949 2.48881,0.34146 -2.09924,0.49546 -3.78295,1.51996 -5.4659,3.32588 -2.74508,2.94574 -3.49676,6.14081 -2.16932,9.22087 0.33711,0.78213 0.57504,1.42111 0.52872,1.41995 -0.0463,-9.7e-4 -0.78348,-0.41633 -1.63819,-0.92264 z m 31.34034,-0.33368 c -3.82985,-0.58097 -6.93235,-2.85834 -8.89975,-6.53279 -1.30675,-2.44056 -1.44515,-8.19927 -0.24,-9.98503 l 0.76661,-1.13592 1.7205,1.50693 c 3.12594,2.73786 7.91515,4.3214 15.0702,4.98293 l 3.51969,0.32542 -1.76619,2.64298 c -1.75769,2.63031 -6.39014,7.62352 -7.59952,8.1914 -0.34896,0.16386 -1.50614,0.16569 -2.57154,0.004 z m -62.9901,-14.39283 c -9.38646,-5.21021 -15.75485,-12.86728 -18.8879,-22.70997 -1.11045,-3.48854 -1.16836,-4.07655 -1.1692,-11.871619 -8.4e-4,-7.930622 0.0433,-8.358889 1.33837,-12.976948 1.67133,-5.959863 4.34246,-11.895413 7.37061,-16.378336 2.35746,-3.490009 6.04892,-7.755512 6.71179,-7.755512 0.19855,0 0.006,0.999121 -0.42695,2.220271 -0.99196,2.795144 -2.01694,7.787879 -2.36437,11.516874 -0.54523,5.85218 1.15743,12.76618 4.24208,17.225754 1.59065,2.299671 1.68408,2.556339 0.81376,2.235546 -4.23312,-1.560298 -7.27904,-4.176905 -8.9794,-7.713801 -0.90534,-1.883174 -1.15419,-3.120727 -1.33152,-6.621698 l -0.21809,-4.305673 -1.32801,3.299568 c -2.91949,7.253783 -4.71704,17.146131 -4.24231,23.346427 0.50416,6.584707 3.32987,13.537717 7.85448,19.326937 3.24282,4.14919 5.83218,6.9847 6.12186,6.70385 0.12516,-0.12134 -0.0677,-1.04378 -0.42853,-2.04988 -0.8454,-2.35709 -1.30407,-9.59395 -0.63353,-9.99572 0.31349,-0.18782 0.48113,0.092 0.48113,0.80312 0,2.91623 3.87113,11.50907 7.05814,15.66712 1.27054,1.65764 0.95293,1.66304 -1.98241,0.0337 z m 46.45564,-4.84973 c 0.19381,-3.32477 -0.70413,-8.81899 -2.39626,-14.66258 -0.66932,-2.31142 -1.1453,-4.20258 -1.05774,-4.20258 0.60105,0 4.33443,6.54091 5.26616,9.22644 l 1.13824,3.28052 0.35843,-1.64027 c 0.42636,-1.95089 0.48215,-15.78285 0.072,-17.837781 -0.28268,-1.416053 -0.27528,-1.411714 0.55253,0.324878 3.05344,6.405753 2.38657,16.762693 -1.5805,24.546343 -2.16103,4.24002 -2.55309,4.40084 -2.35285,0.96503 z m 21.36754,-2.0914 c -3.44059,-0.55726 -7.00109,-2.02196 -8.54653,-3.51584 -1.3968,-1.3502 -1.41803,-1.42457 -1.26217,-4.41757 0.0872,-1.67434 0.29008,-3.17174 0.45081,-3.32755 0.16069,-0.15581 1.95797,0.12861 3.99393,0.63205 2.9084,0.71919 4.30858,0.85738 6.53349,0.64485 2.63727,-0.25194 8.52123,-1.45591 10.20997,-2.08917 0.67004,-0.25126 0.74021,0.0592 0.74021,3.27537 0,1.95412 -0.21825,4.83406 -0.48498,6.39986 l -0.48495,2.84692 -4.48504,-0.0479 c -2.46677,-0.0264 -5.4659,-0.20681 -6.66474,-0.40099 z M 195.09465,104.0675 c -1.02885,-0.78456 -2.42345,-3.87403 -2.42345,-5.368592 0,-0.52027 0.48228,-0.784355 1.79765,-0.984315 5.68601,-0.864377 10.35235,-2.339079 13.77111,-4.352079 2.90709,-1.711738 3.62357,-1.980781 4.14904,-1.558013 0.70734,0.569148 4.81492,8.482269 4.81492,9.275869 0,1.29669 -5.65839,2.71269 -13.53529,3.38718 -6.66149,0.57041 -7.34311,0.53861 -8.57398,-0.40005 z M 151.68653,93.986337 c -8.76715,-2.285648 -13.66626,-9.769014 -13.66892,-20.879429 0,-9.182888 3.43923,-13.877957 9.57491,-13.062647 2.71696,0.361028 4.4848,1.605491 5.74168,4.041833 1.03227,2.00087 1.0549,2.238839 0.95026,9.983649 -0.0941,6.964052 -0.0119,8.142055 0.67245,9.636505 1.05499,2.303892 3.67107,4.491374 6.67408,5.580631 2.81209,1.020022 9.10152,1.825528 12.11194,1.551215 1.10503,-0.100691 2.00914,-0.120374 2.00914,-0.04374 0,0.351187 -3.59138,1.541816 -7.95943,2.63875 -3.90768,0.981328 -5.61715,1.19721 -9.30551,1.175182 -2.52489,-0.01509 -5.52537,-0.289489 -6.8006,-0.621949 z m 32.65927,-1.715163 c -2.40852,-1.355364 -2.5701,-1.53396 -2.04518,-2.260519 0.66729,-0.923624 10.99413,-10.297217 12.35802,-11.217335 0.86525,-0.583694 1.1305,-0.525042 3.80681,0.84184 1.58223,0.808086 3.44782,1.927105 4.14573,2.486707 l 1.26893,1.017464 -1.05744,0.811492 c -0.5816,0.446317 -3.05602,1.866361 -5.49871,3.155647 -4.92613,2.600056 -7.71394,4.310032 -9.30552,5.707715 l -1.05745,0.928618 z m -7.29413,-4.457261 c -1.95255,-2.406515 -1.00309,-5.535943 2.95273,-9.732079 2.13075,-2.260224 2.22596,-2.30951 4.46115,-2.30951 1.25616,0 2.28395,0.111784 2.28395,0.248405 0,0.136626 -1.28505,1.582393 -2.85565,3.212819 -3.13042,3.24968 -5.16202,6.472242 -5.30215,8.410315 -0.11066,1.530802 -0.40919,1.563767 -1.54003,0.17005 z m -8.59068,0.0285 c -1.40716,-0.740218 -2.43741,-2.557376 -2.43741,-4.299049 0,-2.620859 2.382,-5.747393 4.80055,-6.301037 l 1.20523,-0.275899 -0.83796,1.145719 c -1.99142,2.722838 -2.7472,7.10315 -1.59501,9.244488 0.68649,1.275799 0.51003,1.351297 -1.1354,0.485766 z m -7.8366,-1.591573 -1.57995,-1.413356 0.93339,-0.915373 0.93338,-0.915373 0.43284,1.201052 c 0.23809,0.660581 0.71331,1.708508 1.05609,2.328729 0.84735,1.533156 0.12812,1.417452 -1.77575,-0.285679 z m 11.99008,-16.014379 c -0.56608,-4.294273 -1.4836,-7.592922 -2.64742,-9.518243 -0.92857,-1.536124 -1.15017,-2.458747 -1.248,-5.196167 -0.1038,-2.904734 -0.072,-3.080721 0.24934,-1.382556 0.20257,1.070218 1.242,3.499712 2.3098,5.398875 2.17893,3.875203 2.67327,6.475982 2.03347,10.698091 l -0.37285,2.460384 z M 140.04059,56.675056 c -0.36554,-0.354411 -0.65913,-1.138658 -0.65232,-1.742773 0.0359,-3.21021 0.86055,-11.705582 1.3004,-13.399042 l 0.50669,-1.950805 0.79867,2.409996 c 0.48469,1.462622 0.73492,3.161 0.63649,4.320452 -0.11978,1.410928 -0.0237,1.858858 0.36829,1.713117 0.29177,-0.10854 0.65866,0.194264 0.81538,0.672898 0.15671,0.478632 0.9698,1.53423 1.80687,2.345768 0.96757,0.938001 1.61138,2.013579 1.76733,2.952507 0.21847,1.315148 0.39921,1.491333 1.64962,1.607971 0.77231,0.07204 2.00737,-0.06382 2.74449,-0.301918 1.24444,-0.401977 1.28027,-0.388473 0.50161,0.189003 -2.33848,1.734198 -10.8287,2.554424 -12.24352,1.182826 z m 21.83827,-7.250736 0.1667,-2.769319 2.97738,-2.766546 c 2.98445,-2.773099 3.96149,-4.628324 3.96149,-7.522387 0,-0.881792 0.0237,-0.886356 0.84773,-0.16336 1.078,0.945799 1.84042,3.657403 1.53735,5.467831 -0.2759,1.648329 -0.78403,2.244361 -4.71146,5.52653 -1.62847,1.360908 -3.40747,3.041871 -3.95337,3.735474 l -0.99247,1.261099 z m -15.73529,-1.404793 c 0,-0.315861 0.38254,-1.301253 0.8501,-2.189763 0.92958,-1.766499 2.66726,-2.862563 4.53817,-2.862563 0.66027,0 1.94718,-0.369058 2.85984,-0.82013 0.91262,-0.451069 1.70071,-0.820126 1.75134,-0.820126 0.0506,0 0.30298,0.984881 0.56075,2.188626 0.56239,2.626284 0.0794,4.257527 -1.34546,4.543555 -0.53164,0.106736 -2.82249,0.270704 -5.09071,0.364379 -3.33721,0.137818 -4.12403,0.06074 -4.12403,-0.403978 z m 13.53534,-5.653152 c 0,-0.911571 -2.43382,-3.406107 -4.4293,-4.539834 -2.22448,-1.263826 -5.42046,-2.217971 -7.62562,-2.276597 l -1.69191,-0.04498 1.9034,-0.587066 c 4.36632,-1.346704 10.12191,-1.158166 14.10788,0.462142 1.50056,0.60998 1.57801,0.718322 0.97497,1.364321 -0.92857,0.994714 -2.37316,4.206195 -2.3842,5.300196 -0.005,0.507456 -0.19961,0.922646 -0.43224,0.922646 -0.23264,0 -0.42298,-0.270372 -0.42298,-0.600826 z"
       id="path180" />
  </g>
</svg>
